<?xml version="1.0" standalone="no"?>
<!DOCTYPE svg PUBLIC "-//W3C//DTD SVG 20010904//EN"
 "http://www.w3.org/TR/2001/REC-SVG-20010904/DTD/svg10.dtd">
<svg version="1.0" xmlns="http://www.w3.org/2000/svg"
 width="1000.000000pt" height="1000.000000pt" viewBox="0 0 1000.000000 1000.000000"
 preserveAspectRatio="xMidYMid meet">
<metadata>
Created by potrace 1.14, written by Peter Selinger 2001-2017
</metadata>
<g transform="translate(0.000000,1000.000000) scale(0.100000,-0.100000)"
fill="#000000" stroke="none">
<path d="M4738 9994 c-3 -2 -100 -10 -235 -19 -23 -2 -59 -6 -80 -9 -21 -3
-58 -8 -83 -11 -86 -10 -118 -15 -205 -32 -11 -2 -36 -6 -55 -9 -72 -11 -349
-76 -450 -105 -497 -144 -955 -354 -1382 -636 -70 -46 -133 -89 -140 -97 -7
-7 -23 -18 -34 -24 -28 -15 -253 -191 -335 -262 -181 -157 -386 -363 -529
-531 -25 -29 -50 -57 -55 -63 -13 -14 -125 -156 -147 -187 -10 -13 -36 -49
-58 -79 -22 -30 -43 -59 -48 -65 -18 -22 -142 -216 -202 -315 -65 -108 -221
-409 -277 -537 -134 -302 -286 -786 -328 -1043 -3 -19 -8 -48 -12 -65 -3 -16
-7 -39 -8 -50 -2 -11 -8 -47 -13 -80 -6 -33 -13 -82 -17 -110 -3 -27 -8 -63
-10 -80 -21 -139 -29 -313 -29 -580 0 -227 9 -452 19 -507 2 -9 6 -43 10 -75
3 -32 7 -69 10 -83 2 -14 7 -45 10 -70 3 -25 10 -70 15 -100 6 -30 13 -68 15
-85 6 -30 33 -167 40 -195 86 -380 213 -734 391 -1095 119 -239 135 -269 252
-455 733 -1164 1892 -1964 3242 -2239 89 -19 117 -24 180 -35 30 -6 168 -24
230 -31 25 -3 59 -7 75 -9 90 -13 279 -20 510 -20 280 0 413 7 575 29 19 3 58
8 85 11 48 5 74 9 140 20 17 3 42 7 57 9 15 2 51 8 80 14 29 6 62 13 73 15
489 98 1025 301 1475 561 113 66 341 210 375 237 6 5 35 26 65 48 30 22 60 43
65 47 6 5 48 38 95 73 46 36 91 72 100 80 9 8 40 35 69 60 156 131 380 355
513 510 25 30 58 69 73 85 14 17 47 57 72 89 25 33 50 64 55 70 39 45 167 230
260 376 156 245 318 565 431 855 133 343 253 809 291 1138 3 26 8 66 11 90 13
105 15 128 22 222 10 123 9 613 0 715 -4 41 -10 104 -13 140 -3 36 -7 76 -9
90 -2 14 -7 48 -10 75 -4 28 -9 64 -12 80 -3 17 -7 44 -9 60 -2 17 -5 37 -7
45 -2 8 -7 38 -11 65 -5 28 -15 79 -23 115 -8 36 -16 72 -18 80 -2 8 -15 62
-29 120 -159 630 -455 1248 -852 1775 -259 344 -605 698 -901 921 -39 30 -78
60 -85 67 -24 23 -209 150 -363 249 -399 256 -944 488 -1425 607 -112 27 -259
60 -305 67 -27 4 -54 8 -60 10 -21 4 -92 15 -130 20 -22 3 -51 7 -65 9 -32 6
-196 23 -285 31 -67 6 -632 13 -637 8z"/>
</g>
</svg>
